# This file uses centimeters as units for non-parametric coordinates.

mtllib BallCap_LP.mtl
g default
v 0.710464 -1.492529 -2.768357
v -2.744106 -1.708117 -2.476977
v -4.215178 -1.876058 -0.000001
v -2.744107 -1.708117 2.476976
v 0.710464 -1.492529 2.768357
v 2.305311 -0.444348 -0.000000
v 0.641822 -0.525239 -2.822944
v -2.617833 -0.525239 -2.600865
v -4.247661 -0.525239 -0.000001
v -2.617834 -0.525239 2.600864
v 0.641821 -0.525239 2.822944
v 2.052764 -0.017223 -0.000000
v 0.325260 0.788113 -2.274642
v -2.301271 0.788113 -2.274643
v -3.614536 0.788113 -0.000001
v -2.301272 0.788113 2.274642
v 0.325259 0.788113 2.274642
v 1.638524 0.783286 -0.000000
v -0.277272 1.593310 -1.231027
v -1.698740 1.593310 -1.231027
v -2.409474 1.593310 -0.000000
v -1.698741 1.593310 1.231027
v -0.277272 1.593310 1.231027
v 0.433462 1.593310 -0.000000
v -0.988006 1.876058 -0.000000
v 0.526445 -1.484477 -2.466957
v -2.581679 -1.666934 -2.232646
v -3.879527 -1.818309 -0.000001
v -2.581679 -1.666934 2.232645
v 0.526445 -1.484477 2.466956
v 1.969660 -0.491824 -0.000000
v 0.710464 -1.492529 2.768357
v 3.785685 -1.332849 1.940948
v 0.710464 -1.364862 2.768357
v 3.785685 -1.194429 1.940948
v 0.710464 -1.364862 -2.768357
v 3.785685 -1.194429 -1.940948
v 0.710464 -1.492529 -2.768357
v 3.785685 -1.332849 -1.940948
v 2.894048 -1.681766 2.620279
v 2.894048 -1.532957 2.620279
v 2.894048 -1.532957 -2.620279
v 2.894048 -1.681766 -2.620279
v 1.620501 -0.546142 -0.000000
v 4.247661 -0.842898 -0.000000
v 1.620501 -0.769072 -0.000000
v 4.247661 -0.996795 -0.000000
v 2.492593 -0.328472 -0.000000
v 2.492593 -0.566317 -0.000000
vt 0.670769 0.487703
vt 0.819234 0.634846
vt 0.753978 0.665323
vt 0.642844 0.531994
vt 0.918339 0.812014
vt 0.141866 0.871520
vt 0.137357 0.651983
vt 0.204043 0.679148
vt 0.278223 0.497667
vt 0.308401 0.540386
vt 0.473975 0.468346
vt 0.474709 0.497677
vt 0.681654 0.696546
vt 0.599280 0.592929
vt 0.255454 0.875431
vt 0.277816 0.706736
vt 0.354886 0.598966
vt 0.475944 0.548070
vt 0.600182 0.726943
vt 0.552821 0.657093
vt 0.370558 0.835836
vt 0.360953 0.732989
vt 0.404715 0.660769
vt 0.477973 0.630567
vt 0.480980 0.741585
vt 0.679179 0.475233
vt 0.832153 0.623299
vt 0.931056 0.790540
vt 0.123843 0.641082
vt 0.269387 0.485498
vt 0.473540 0.450956
vt 0.630654 0.420963
vt 0.770897 0.092334
vt 0.215287 0.391029
vt 0.263891 0.349779
vt 0.824443 0.500708
vt 0.652963 0.093309
vt 0.508443 0.390696
vt 0.755527 0.243292
vt 0.382040 0.394988
vt 0.315023 0.427751
vt 0.185385 0.473165
vt 0.003737 0.520530
vt 0.382264 0.403666
vt 0.218834 0.092833
vt 0.101364 0.086079
vt 0.507424 0.400218
vt 0.194499 0.240847
vt 0.986768 0.589010
vt 0.046881 0.833693
vt 0.033125 0.812838
vt 0.596088 0.829372
vt 0.711947 0.863469
vt 0.825093 0.854448
vt 0.289076 0.242080
vt 0.629718 0.429555
vt 0.266078 0.134600
vt 0.317837 0.436551
vt 0.694548 0.461700
vt 0.147708 0.240081
vt 0.095037 0.394444
vt 0.189038 0.480250
vt 0.010881 0.532530
vt 0.849562 0.238015
vt 0.831460 0.345613
vt 0.820531 0.131609
vt 0.709528 0.245790
vt 0.996269 0.578785
vt 0.671457 0.401309
vt 0.828742 0.493982
vt 0.786904 0.388921
vt 0.697130 0.452818
vn 0.332016 -0.231540 -0.914415
vn -0.559321 -0.208282 -0.802359
vn -0.499990 0.168624 -0.849457
vn 0.352809 0.212329 -0.911286
vn -0.987941 -0.154832 -0.000000
vn -0.979584 0.201035 -0.000000
vn -0.559321 -0.208282 0.802358
vn -0.499990 0.168624 0.849456
vn 0.332016 -0.231540 0.914415
vn 0.352808 0.212329 0.911286
vn 0.996393 -0.084863 0.000000
vn 0.939095 0.343658 0.000000
vn -0.408896 0.538108 -0.737051
vn 0.360933 0.564360 -0.742446
vn -0.831054 0.556192 -0.000000
vn -0.408896 0.538108 0.737051
vn 0.360933 0.564360 0.742446
vn 0.799972 0.600037 0.000000
vn -0.252086 0.863603 -0.436627
vn 0.252943 0.863385 -0.436561
vn -0.504173 0.863603 -0.000000
vn -0.252087 0.863603 0.436627
vn 0.252943 0.863385 0.436561
vn 0.505525 0.862812 0.000000
vn -0.000000 1.000000 0.000000
vn 0.141394 -0.975353 0.169393
vn 0.117331 -0.990790 0.067590
vn 0.177133 -0.984187 0.000000
vn 0.117331 -0.990790 -0.067590
vn 0.141394 -0.975353 -0.169393
vn 0.220365 -0.975418 -0.000000
vn 0.217208 0.912117 0.347653
vn 0.070164 0.910889 0.406643
vn -0.027854 -0.965787 -0.257838
vn -0.033182 -0.963787 -0.264602
vn -0.127952 -0.953861 -0.271622
vn -0.155936 0.914926 0.372283
vn 0.241279 0.970456 0.000000
vn 0.059306 0.998240 0.000000
vn 0.217208 0.912117 -0.347653
vn 0.070164 0.910889 -0.406643
vn -0.155936 0.914926 -0.372283
vn -0.077123 0.997022 0.000000
vn -0.033182 -0.963787 0.264602
vn -0.027854 -0.965787 0.257838
vn -0.127952 -0.953861 0.271622
vn 0.005233 -0.999986 0.000000
vn -0.050182 -0.998740 0.000000
vn -0.122665 -0.992448 0.000000
s 1
g polySurface1
usemtl lambert2SG
f 1/1/1 2/2/2 8/3/3 7/4/4
f 2/2/2 3/5/5 9/54/6 8/3/3
f 3/50/5 4/7/7 10/8/8 9/6/6
f 4/7/7 5/9/9 11/10/10 10/8/8
f 5/9/9 6/11/11 12/12/12 11/10/10
f 6/11/11 1/1/1 7/4/4 12/12/12
f 7/4/4 8/3/3 14/13/13 13/14/14
f 8/3/3 9/54/6 15/53/15 14/13/13
f 9/6/6 10/8/8 16/16/16 15/15/15
f 10/8/8 11/10/10 17/17/17 16/16/16
f 11/10/10 12/12/12 18/18/18 17/17/17
f 12/12/12 7/4/4 13/14/14 18/18/18
f 13/14/14 14/13/13 20/19/19 19/20/20
f 14/13/13 15/53/15 21/52/21 20/19/19
f 15/15/15 16/16/16 22/22/22 21/21/21
f 16/16/16 17/17/17 23/23/23 22/22/22
f 17/17/17 18/18/18 24/24/24 23/23/23
f 18/18/18 13/14/14 19/20/20 24/24/24
f 19/20/20 20/19/19 25/25/25
f 20/19/19 21/52/21 25/25/25
f 21/21/21 22/22/22 25/25/25
f 22/22/22 23/23/23 25/25/25
f 23/23/23 24/24/24 25/25/25
f 24/24/24 19/20/20 25/25/25
f 2/2/2 1/1/1 26/26/26 27/27/27
f 3/5/5 2/2/2 27/27/27 28/28/28
f 4/7/7 3/50/5 28/51/28 29/29/29
f 5/9/9 4/7/7 29/29/29 30/30/30
f 6/11/11 5/9/9 30/30/30 31/31/31
f 1/1/1 6/11/11 31/31/31 26/26/26
s 2
f 35/32/32 41/72/33 40/59/34 33/56/35
f 32/36/36 40/59/34 41/72/33 34/70/37
f 41/33/33 35/66/32 45/64/38 48/39/39
f 45/64/38 37/65/40 42/71/41 48/39/39
f 42/71/41 36/69/42 44/67/43 48/39/39
f 44/67/43 34/37/37 41/33/33 48/39/39
f 39/44/44 43/58/45 42/41/41 37/40/40
f 36/42/42 42/41/41 43/58/45 38/62/46
f 43/45/45 39/57/44 47/55/47 49/48/48
f 47/55/47 33/35/35 40/34/34 49/48/48
f 40/34/34 32/61/36 46/60/49 49/48/48
f 46/60/49 38/46/46 43/45/45 49/48/48
f 39/44/44 37/40/40 45/38/38 47/47/47
f 35/32/32 33/56/35 47/47/47 45/38/38
f 32/36/36 34/70/37 44/68/43 46/49/49
f 36/42/42 38/62/46 46/63/49 44/43/43
