# This file uses centimeters as units for non-parametric coordinates.

mtllib Bookshelf_LP.mtl
g default
v -1.343392 10.387770 4.819166
v -1.324636 10.387770 4.837922
v -1.324636 10.406526 4.819166
v 1.034507 10.393592 4.824326
v 1.015751 10.406526 4.819166
v 1.015751 10.387770 4.837922
v -1.343392 0.018756 4.819166
v -1.324636 0.000000 4.819166
v -1.324636 0.018756 4.837922
v 1.034507 0.012609 4.816719
v 1.015751 0.018756 4.837922
v 1.015751 0.000000 4.819166
v -1.324636 10.387770 -4.837922
v -1.343392 10.387770 -4.819166
v -1.324636 10.406526 -4.819166
v 1.034507 10.392359 -4.823030
v 1.015751 10.387770 -4.837922
v 1.015751 10.406526 -4.819166
v -1.324636 0.000000 -4.819166
v -1.343392 0.018756 -4.819166
v -1.324636 0.018756 -4.837922
v 1.034507 0.012609 -4.816719
v 1.015751 0.000000 -4.819166
v 1.015751 0.018756 -4.837922
vt 0.317895 0.996346
vt 0.317291 0.593536
vt 0.691652 0.592821
vt 0.692452 0.995715
vt 0.691977 0.096465
vt 0.691770 0.004335
vt 0.692647 0.592475
vt 0.692614 0.500681
vt 0.316611 0.500797
vt 0.316065 0.096929
vt 0.690870 0.096165
vt 0.691899 0.500046
vt 0.691612 0.500945
vt 0.691744 0.591836
vt 0.317198 0.592552
vt 0.316932 0.501668
vt 0.316896 0.996533
vt 0.315100 0.096259
vt 0.315699 0.500505
vt 0.316293 0.593192
vt 0.692709 0.996714
vt 0.690826 0.095285
vt 0.316105 0.096049
vt 0.315865 0.005070
vt 0.690718 0.004337
vt 0.782937 0.096267
vt 0.693454 0.995962
vt 0.692842 0.499789
vt 0.224019 0.097416
vt 0.314813 0.005072
vt 0.317616 0.997339
vt 0.315927 0.501434
vt 0.783786 0.499591
vt 0.224761 0.500654
vt 0.691832 0.095491
vt 0.314960 0.097234
vn -1.000000 0.000000 0.000000
vn -1.000000 0.000000 0.000000
vn -1.000000 0.000000 0.000000
vn -1.000000 0.000000 0.000000
vn 0.000000 0.000000 -1.000000
vn 0.000000 0.000000 -1.000000
vn 0.000000 0.000000 -1.000000
vn 0.000000 0.000000 -1.000000
vn 1.000000 0.000000 0.000000
vn 1.000000 0.000000 0.000000
vn 1.000000 0.000000 0.000000
vn 1.000000 0.000000 0.000000
vn 0.000000 1.000000 0.000000
vn 0.000000 1.000000 0.000000
vn 0.000000 1.000000 0.000000
vn 0.000000 1.000000 0.000000
vn 0.000000 0.000000 1.000000
vn 0.000000 0.000000 1.000000
vn 0.000000 0.000000 1.000000
vn 0.000000 0.000000 1.000000
vn 0.000000 -1.000000 0.000000
vn 0.000000 -1.000000 0.000000
vn 0.000000 -1.000000 0.000000
vn 0.000000 -1.000000 0.000000
vn 0.000000 0.707110 0.707104
vn 0.000000 0.707110 0.707104
vn 0.000715 0.707110 0.707104
vn 0.000739 0.707110 0.707104
vn -0.707109 0.707105 0.000000
vn -0.707109 0.707105 0.000000
vn -0.707109 0.707105 0.000000
vn -0.707109 0.707105 0.000000
vn 0.585617 0.810588 -0.000052
vn 0.585617 0.810588 -0.000052
vn 0.585617 0.810588 -0.000052
vn 0.585617 0.810588 -0.000052
vn -0.707103 0.000000 0.707110
vn -0.707103 0.000000 0.707110
vn -0.707103 0.000000 0.707110
vn -0.707103 0.000000 0.707110
vn -0.707106 -0.707108 0.000000
vn -0.707106 -0.707108 0.000000
vn -0.707106 -0.707108 0.000000
vn -0.707106 -0.707108 0.000000
vn 0.000000 -0.707110 0.707104
vn 0.000000 -0.707110 0.707104
vn 0.001803 -0.707108 0.707103
vn 0.001213 -0.707109 0.707103
vn 0.680090 -0.000269 0.733129
vn 0.680090 -0.000269 0.733129
vn 0.680090 -0.000269 0.733129
vn 0.680090 -0.000269 0.733129
vn 0.557913 -0.829899 0.000000
vn 0.557913 -0.829899 0.000000
vn 0.557913 -0.829899 0.000000
vn 0.557913 -0.829899 0.000000
vn 0.000000 0.707110 -0.707104
vn 0.000000 0.707110 -0.707104
vn 0.000994 0.707109 -0.707103
vn 0.000959 0.707109 -0.707103
vn -0.707103 0.000000 -0.707110
vn -0.707103 0.000000 -0.707110
vn -0.707103 0.000000 -0.707110
vn -0.707103 0.000000 -0.707110
vn 0.000000 -0.707110 -0.707104
vn 0.000000 -0.707110 -0.707104
vn 0.001213 -0.707109 -0.707103
vn 0.001803 -0.707108 -0.707103
vn 0.693351 -0.000219 -0.720600
vn 0.693351 -0.000219 -0.720600
vn 0.693351 -0.000219 -0.720600
vn 0.693351 -0.000219 -0.720600
vn -0.577352 0.577346 0.577352
vn -0.577352 0.577346 0.577352
vn -0.577352 0.577346 0.577352
vn 0.281228 0.678535 0.678603
vn -0.577356 -0.577350 0.577344
vn -0.577356 -0.577350 0.577344
vn -0.577356 -0.577350 0.577344
vn 0.493648 -0.614944 0.614944
vn -0.577352 0.577346 -0.577352
vn -0.577352 0.577346 -0.577352
vn -0.577352 0.577346 -0.577352
vn 0.362054 0.659102 -0.659168
vn -0.577356 -0.577350 -0.577344
vn -0.577356 -0.577350 -0.577344
vn -0.577356 -0.577350 -0.577344
vn 0.493643 -0.614946 -0.614946
s off
g polySurface8
usemtl lambert2SG
f 7/1/1 1/2/2 14/3/3 20/4/4
f 24/5/5 21/26/6 13/33/7 17/28/8
f 4/9/9 10/10/10 22/11/11 16/12/12
f 18/13/13 15/14/14 3/15/15 5/16/16
f 9/29/17 11/36/18 6/19/19 2/34/20
f 19/25/21 23/22/22 12/23/23 8/24/24
s 1
f 3/15/25 2/20/26 6/32/27 5/16/28
s off
f 14/3/29 1/2/30 3/15/31 15/14/32
f 4/9/33 16/12/34 18/13/35 5/16/36
f 1/2/37 7/1/38 9/17/39 2/20/40
f 19/21/41 8/31/42 7/1/43 20/4/44
s 2
f 9/30/45 8/24/46 12/23/47 11/18/48
s off
f 6/19/49 11/36/50 10/10/51 4/9/52
f 12/23/53 23/22/54 22/11/55 10/10/56
s 3
f 13/7/57 15/14/58 18/13/59 17/8/60
s off
f 13/7/61 21/27/62 20/4/63 14/3/64
s 4
f 19/25/65 21/6/66 24/35/67 23/22/68
s off
f 16/12/69 22/11/70 24/5/71 17/28/72
f 1/2/73 2/20/74 3/15/75
s 1
f 4/9/76 5/16/28 6/32/27
s off
f 7/1/77 8/31/78 9/17/79
s 2
f 10/10/80 11/18/48 12/23/47
s off
f 13/7/81 14/3/82 15/14/83
s 3
f 16/12/84 17/8/60 18/13/59
s off
f 19/21/85 20/4/86 21/27/87
s 4
f 22/11/88 23/22/68 24/35/67
