# This file uses centimeters as units for non-parametric coordinates.

mtllib Door_LP.mtl
g default1
v 77.316879 159.722240 2.824043
v -77.316879 159.722240 2.824043
v 77.316879 -159.722240 2.824043
v -77.316879 -159.722240 2.824043
v 77.316879 -44.408741 2.824043
v -77.316879 -44.408741 2.824043
v 59.512753 -54.011372 2.824043
v -59.512753 -54.011372 2.824043
v -59.512753 -121.213467 2.824043
v 59.512753 -121.213467 2.824043
v -59.512753 139.799083 2.824043
v -59.512753 -21.437108 2.824043
v 59.512753 -21.437108 2.824043
v 59.512753 139.799083 2.824043
v 77.316879 -44.408741 -2.824043
v -77.316879 -44.408741 -2.824043
v -59.512753 -54.011372 -2.824043
v 59.512753 -54.011372 -2.824043
v -77.316879 -159.722240 -2.824043
v -59.512753 -121.213467 -2.824043
v 77.316879 -159.722240 -2.824043
v 59.512753 -121.213467 -2.824043
v -77.316879 159.722240 -2.824043
v -59.512753 -21.437108 -2.824043
v -59.512753 139.799083 -2.824043
v 59.512753 -21.437108 -2.824043
v 77.316879 159.722240 -2.824043
v 59.512753 139.799083 -2.824043
vt 0.482699 0.325720
vt 0.077181 0.323420
vt 0.124014 0.298502
vt 0.436152 0.300273
vt 0.078896 0.021018
vt 0.125013 0.122270
vt 0.484413 0.023318
vt 0.437151 0.124040
vt 0.074142 0.858741
vt 0.123529 0.383926
vt 0.121128 0.806758
vt 0.435667 0.385697
vt 0.479659 0.861044
vt 0.433266 0.808531
vt 0.497511 0.325804
vt 0.544344 0.300887
vt 0.856481 0.302658
vt 0.903028 0.328106
vt 0.857480 0.126425
vt 0.904743 0.025702
vt 0.545343 0.124654
vt 0.499225 0.023402
vt 0.899993 0.863428
vt 0.853599 0.810915
vt 0.855997 0.388082
vt 0.543859 0.386311
vt 0.541458 0.809145
vt 0.494471 0.861128
vt 0.500868 0.989177
vt 0.203789 0.987886
vt 0.203851 0.973786
vt 0.500926 0.975091
vt 0.062369 0.323335
vt 0.064084 0.020934
vt 0.668712 0.990930
vt 0.668907 0.976806
vt 0.078980 0.006207
vt 0.484497 0.008507
vt 0.966481 0.995612
vt 0.966703 0.981481
vt 0.035949 0.987121
vt 0.036015 0.973015
vt 0.059330 0.858656
vt 0.477984 0.912984
vt 0.050238 0.912788
vt 0.050246 0.897792
vt 0.477992 0.897988
vt 0.793850 0.913215
vt 0.793861 0.898221
vt 0.463564 0.949869
vt 0.035027 0.949262
vt 0.035048 0.934277
vt 0.463579 0.934879
vt 0.479575 0.875856
vt 0.074058 0.873552
vt 0.779325 0.950045
vt 0.779332 0.935049
vn 0.000000 0.000000 1.000000
vn 0.000000 0.000000 1.000000
vn 0.000000 0.000000 1.000000
vn 0.000000 0.000000 1.000000
vn 0.000000 -0.000000 1.000000
vn 0.000000 -0.000000 1.000000
vn 0.000000 -0.000000 1.000000
vn 0.000000 -0.000000 1.000000
vn 0.000000 -0.000000 1.000000
vn 0.000000 -0.000000 1.000000
vn 0.000000 -0.000000 1.000000
vn 0.000000 -0.000000 1.000000
vn 0.000000 -0.000000 1.000000
vn 0.000000 -0.000000 1.000000
vn 0.000000 -0.000000 1.000000
vn 0.000000 -0.000000 1.000000
vn 0.000000 -0.000000 1.000000
vn 0.000000 -0.000000 1.000000
vn 0.000000 -0.000000 1.000000
vn 0.000000 -0.000000 1.000000
vn 0.000000 -0.000000 1.000000
vn 0.000000 -0.000000 1.000000
vn 0.000000 -0.000000 1.000000
vn 0.000000 -0.000000 1.000000
vn 0.000000 -0.000000 1.000000
vn 0.000000 -0.000000 1.000000
vn 0.000000 -0.000000 1.000000
vn 0.000000 -0.000000 1.000000
vn 0.000000 0.000000 1.000000
vn 0.000000 0.000000 1.000000
vn 0.000000 0.000000 1.000000
vn 0.000000 0.000000 1.000000
vn 0.000000 0.000000 -1.000000
vn 0.000000 0.000000 -1.000000
vn 0.000000 0.000000 -1.000000
vn 0.000000 0.000000 -1.000000
vn 0.000000 0.000000 -1.000000
vn 0.000000 0.000000 -1.000000
vn 0.000000 0.000000 -1.000000
vn 0.000000 0.000000 -1.000000
vn 0.000000 0.000000 -1.000000
vn 0.000000 0.000000 -1.000000
vn 0.000000 0.000000 -1.000000
vn 0.000000 0.000000 -1.000000
vn 0.000000 0.000000 -1.000000
vn 0.000000 0.000000 -1.000000
vn 0.000000 0.000000 -1.000000
vn 0.000000 0.000000 -1.000000
vn 0.000000 0.000000 -1.000000
vn 0.000000 0.000000 -1.000000
vn 0.000000 0.000000 -1.000000
vn 0.000000 0.000000 -1.000000
vn 0.000000 0.000000 -1.000000
vn 0.000000 0.000000 -1.000000
vn 0.000000 0.000000 -1.000000
vn 0.000000 0.000000 -1.000000
vn 0.000000 0.000000 -1.000000
vn 0.000000 0.000000 -1.000000
vn 0.000000 0.000000 -1.000000
vn 0.000000 0.000000 -1.000000
vn 0.000000 0.000000 -1.000000
vn 0.000000 0.000000 -1.000000
vn 0.000000 0.000000 -1.000000
vn 0.000000 0.000000 -1.000000
vn 0.000000 1.000000 0.000000
vn 0.000000 1.000000 0.000000
vn 0.000000 1.000000 0.000000
vn 0.000000 1.000000 0.000000
vn 1.000000 -0.000000 0.000000
vn 1.000000 -0.000000 0.000000
vn 1.000000 -0.000000 0.000000
vn 1.000000 -0.000000 0.000000
vn -1.000000 0.000000 0.000000
vn -1.000000 0.000000 0.000000
vn -1.000000 0.000000 0.000000
vn -1.000000 0.000000 0.000000
vn 0.000000 1.000000 0.000000
vn 0.000000 1.000000 0.000000
vn 0.000000 1.000000 0.000000
vn 0.000000 1.000000 0.000000
vn 0.000000 -1.000000 0.000000
vn 0.000000 -1.000000 0.000000
vn 0.000000 -1.000000 0.000000
vn 0.000000 -1.000000 0.000000
vn -1.000000 0.000000 0.000000
vn -1.000000 0.000000 0.000000
vn -1.000000 0.000000 0.000000
vn -1.000000 0.000000 0.000000
vn 1.000000 -0.000000 0.000000
vn 1.000000 -0.000000 0.000000
vn 1.000000 -0.000000 0.000000
vn 1.000000 -0.000000 0.000000
vn 1.000000 -0.000000 0.000000
vn 1.000000 -0.000000 0.000000
vn 1.000000 -0.000000 0.000000
vn 1.000000 -0.000000 0.000000
vn -1.000000 0.000000 0.000000
vn -1.000000 0.000000 0.000000
vn -1.000000 0.000000 0.000000
vn -1.000000 0.000000 0.000000
vn 0.000000 -1.000000 0.000000
vn 0.000000 -1.000000 0.000000
vn 0.000000 -1.000000 0.000000
vn 0.000000 -1.000000 0.000000
vn -1.000000 0.000000 0.000000
vn -1.000000 0.000000 0.000000
vn -1.000000 0.000000 0.000000
vn -1.000000 0.000000 0.000000
vn 1.000000 -0.000000 0.000000
vn 1.000000 -0.000000 0.000000
vn 1.000000 -0.000000 0.000000
vn 1.000000 -0.000000 0.000000
vn 0.000000 -1.000000 0.000000
vn 0.000000 -1.000000 0.000000
vn 0.000000 -1.000000 0.000000
vn 0.000000 -1.000000 0.000000
vn 0.000000 1.000000 0.000000
vn 0.000000 1.000000 0.000000
vn 0.000000 1.000000 0.000000
vn 0.000000 1.000000 0.000000
s off
g polySurface13 polySurface15 polySurface16 polySurface1
usemtl lambert2SG
f 15/1/1 16/2/2 17/3/3 18/4/4
f 16/2/5 19/5/6 20/6/7 17/3/8
f 19/5/9 21/7/10 22/8/11 20/6/12
f 21/7/13 15/1/14 18/4/15 22/8/16
f 23/9/17 16/2/18 24/10/19 25/11/20
f 16/2/21 15/1/22 26/12/23 24/10/24
f 15/1/25 27/13/26 28/14/27 26/12/28
f 27/13/29 23/9/30 25/11/31 28/14/32
f 5/15/33 7/16/34 8/17/35 6/18/36
f 6/18/37 8/17/38 9/19/39 4/20/40
f 4/20/41 9/19/42 10/21/43 3/22/44
f 3/22/45 10/21/46 7/16/47 5/15/48
f 2/23/49 11/24/50 12/25/51 6/18/52
f 6/18/53 12/25/54 13/26/55 5/15/56
f 5/15/57 13/26/58 14/27/59 1/28/60
f 1/28/61 14/27/62 11/24/63 2/23/64
f 8/29/65 7/30/66 18/31/67 17/32/68
f 6/33/69 4/34/70 19/5/71 16/2/72
f 9/35/73 8/29/74 17/32/75 20/36/76
f 4/37/77 3/38/78 21/7/79 19/5/80
f 10/39/81 9/35/82 20/36/83 22/40/84
f 3/22/85 5/15/86 15/1/87 21/7/88
f 7/30/89 10/41/90 22/42/91 18/31/92
f 2/43/93 6/33/94 16/2/95 23/9/96
f 12/44/97 11/45/98 25/46/99 24/47/100
f 13/48/101 12/44/102 24/47/103 26/49/104
f 5/15/105 1/28/106 27/13/107 15/1/108
f 14/50/109 13/51/110 26/52/111 28/53/112
f 1/54/113 2/55/114 23/9/115 27/13/116
f 11/56/117 14/50/118 28/53/119 25/57/120
