# This file uses centimeters as units for non-parametric coordinates.

mtllib Shouvel.mtl
g default
v 0.356328 -0.095157 0.208405
v 0.864981 0.009758 0.254449
v 0.339263 -0.012424 0.208405
v 0.860912 0.029481 0.254449
v 0.339263 -0.012424 -0.208405
v 0.860912 0.029481 -0.254449
v 0.356328 -0.095157 -0.208405
v 0.864981 0.009758 -0.254449
v 0.385226 -0.050873 0.157055
v 0.385226 -0.050873 -0.157055
v -0.582422 -0.045710 0.029995
v 0.358060 -0.085193 0.029995
v -0.579945 0.013307 0.029995
v 0.346030 -0.025567 0.029995
v -0.579945 0.013307 -0.029994
v 0.346030 -0.025567 -0.029994
v -0.582422 -0.045710 -0.029994
v 0.358060 -0.085193 -0.029994
v -0.843452 -0.039562 0.183031
v -0.638641 -0.048160 0.183031
v -0.840415 0.032792 0.183031
v -0.635603 0.024193 0.183031
v -0.840415 0.032792 -0.183031
v -0.635603 0.024193 -0.183031
v -0.843452 -0.039562 -0.183031
v -0.638641 -0.048160 -0.183031
v -0.785488 0.030486 0.132140
v -0.676037 0.025891 0.132140
v -0.676037 0.025891 -0.132139
v -0.785488 0.030486 -0.132139
v -0.788525 -0.041867 0.132140
v -0.679076 -0.046462 0.132140
v -0.679076 -0.046462 -0.132139
v -0.788525 -0.041867 -0.132139
v -0.577739 -0.050717 -0.075019
v -0.574702 0.021636 -0.075019
v -0.628643 0.023901 -0.054160
v -0.631681 -0.048451 -0.054160
v -0.577739 -0.050717 0.075020
v -0.574702 0.021636 0.075020
v -0.628643 0.023901 0.054161
v -0.631681 -0.048451 0.054161
vt 0.394511 0.486272
vt 0.376221 0.818642
vt 0.363469 0.835525
vt 0.343571 0.482460
vt 0.058873 0.474928
vt 0.015477 0.826984
vt 0.004359 0.805107
vt 0.008012 0.472537
vt 0.065967 0.423947
vt 0.043385 0.082079
vt 0.373392 0.089119
vt 0.338350 0.431930
vt 0.342056 0.846750
vt 0.037581 0.837903
vt 0.306338 0.515017
vt 0.094818 0.510593
vt 0.868189 0.842854
vt 0.868056 0.105812
vt 0.909367 0.121500
vt 0.909819 0.842920
vt 0.951727 0.122270
vt 0.952019 0.843252
vt 0.993024 0.107632
vt 0.993688 0.843771
vt 0.826081 0.843094
vt 0.825883 0.105042
vt 0.555044 0.952666
vt 0.558099 0.800521
vt 0.611829 0.801610
vt 0.608788 0.953729
vt 0.620264 0.357674
vt 0.617634 0.507229
vt 0.564634 0.506166
vt 0.567836 0.356758
vt 0.560025 0.708535
vt 0.613688 0.709651
vt 0.572060 0.092928
vt 0.624276 0.093712
vt 0.772104 0.095943
vt 0.742376 0.132206
vt 0.663367 0.131010
vt 0.814902 0.174500
vt 0.775730 0.188951
vt 0.768092 0.359932
vt 0.660472 0.321597
vt 0.739480 0.322793
vt 0.481654 0.563270
vt 0.485188 0.648841
vt 0.443160 0.652653
vt 0.436146 0.564918
vt 0.501858 0.724953
vt 0.455434 0.722336
vt 0.466857 0.882478
vt 0.438298 0.969934
vt 0.394092 0.949093
vt 0.425865 0.873353
vt 0.480419 0.367504
vt 0.431683 0.366600
vt 0.562482 0.597409
vt 0.615947 0.598538
vt 0.774548 0.267056
vt 0.813268 0.282704
vt 0.441326 0.801491
vt 0.484324 0.808796
vt 0.417842 0.183373
vt 0.416607 0.261424
vt 0.377448 0.275823
vt 0.379175 0.167712
vt 0.452909 0.127716
vt 0.424337 0.090590
vt 0.531851 0.128978
vt 0.449868 0.318170
vt 0.420114 0.354367
vt 0.528796 0.319445
vn -0.484689 -0.672853 0.558879
vn 0.651615 -0.473260 0.592809
vn 0.336304 0.923688 0.183576
vn -0.296804 0.916921 0.266766
vn -0.296805 0.916921 -0.266762
vn 0.336305 0.923688 -0.183572
vn 0.651614 -0.473261 -0.592809
vn -0.484690 -0.672853 -0.558878
vn -0.484690 -0.672853 -0.558878
vn 0.651614 -0.473261 -0.592809
vn 0.651615 -0.473260 0.592809
vn -0.484689 -0.672853 0.558879
vn 0.651615 -0.473260 0.592809
vn 0.651614 -0.473261 -0.592809
vn 0.336305 0.923688 -0.183572
vn 0.336304 0.923688 0.183576
vn -0.484690 -0.672853 -0.558878
vn -0.484689 -0.672853 0.558879
vn -0.296804 0.916921 0.266766
vn -0.296805 0.916921 -0.266762
vn -0.296804 0.916921 0.266766
vn 0.336304 0.923688 0.183576
vn 0.174602 0.957994 -0.227514
vn 0.336304 0.923688 0.183576
vn 0.336305 0.923688 -0.183572
vn 0.174603 0.957992 0.227518
vn 0.174602 0.957994 -0.227514
vn 0.336305 0.923688 -0.183572
vn -0.296805 0.916921 -0.266762
vn 0.174603 0.957992 0.227518
vn -0.296805 0.916921 -0.266762
vn -0.296804 0.916921 0.266766
vn 0.174602 0.957994 -0.227514
vn 0.174603 0.957992 0.227518
vn -0.029659 -0.706484 0.707107
vn -0.029659 -0.706484 0.707107
vn 0.029659 0.706484 0.707107
vn 0.029659 0.706484 0.707107
vn 0.029659 0.706484 0.707107
vn 0.029659 0.706484 0.707107
vn 0.029659 0.706484 -0.707107
vn 0.029659 0.706484 -0.707107
vn 0.029659 0.706484 -0.707107
vn 0.029659 0.706484 -0.707107
vn -0.029659 -0.706484 -0.707107
vn -0.029659 -0.706484 -0.707107
vn -0.029659 -0.706484 -0.707107
vn -0.029659 -0.706484 -0.707107
vn -0.029659 -0.706484 0.707107
vn -0.029659 -0.706484 0.707107
vn -0.442135 -0.798653 0.408252
vn 0.297529 -0.770006 0.564417
vn 0.361022 0.742363 0.564412
vn -0.373642 0.832903 0.408246
vn -0.373642 0.832903 -0.408246
vn 0.361022 0.742363 -0.564412
vn 0.297530 -0.770007 -0.564416
vn -0.442136 -0.798653 -0.408251
vn 0.297529 -0.770006 0.564417
vn 0.641658 -0.746373 0.176639
vn 0.701958 0.689967 0.176639
vn 0.361022 0.742363 0.564412
vn -0.442136 -0.798653 -0.408251
vn -0.442135 -0.798653 0.408252
vn -0.373642 0.832903 0.408246
vn -0.373642 0.832903 -0.408246
vn -0.373642 0.832903 0.408246
vn 0.361022 0.742363 0.564412
vn -0.290102 0.766650 -0.572790
vn 0.442136 0.798653 -0.408251
vn 0.361022 0.742363 0.564412
vn 0.701958 0.689967 0.176639
vn -0.637079 0.747724 -0.187188
vn -0.290102 0.766650 -0.572790
vn 0.361022 0.742363 -0.564412
vn -0.373642 0.832903 -0.408246
vn 0.442136 0.798653 0.408251
vn -0.290101 0.766650 0.572791
vn -0.373642 0.832903 -0.408246
vn -0.373642 0.832903 0.408246
vn 0.442136 0.798653 -0.408251
vn 0.442136 0.798653 0.408251
vn 0.442136 0.798653 -0.408251
vn -0.290102 0.766650 -0.572790
vn -0.353339 -0.739641 -0.572785
vn 0.373642 -0.832903 -0.408244
vn -0.290102 0.766650 -0.572790
vn -0.637079 0.747724 -0.187188
vn -0.697507 -0.691697 -0.187188
vn -0.353339 -0.739641 -0.572785
vn -0.290101 0.766650 0.572791
vn 0.442136 0.798653 0.408251
vn 0.373642 -0.832903 0.408246
vn -0.353338 -0.739640 0.572787
vn 0.442136 0.798653 0.408251
vn 0.442136 0.798653 -0.408251
vn 0.373642 -0.832903 -0.408244
vn 0.373642 -0.832903 0.408246
vn 0.641658 -0.746373 -0.176639
vn 0.297530 -0.770007 -0.564416
vn 0.361022 0.742363 -0.564412
vn 0.701958 0.689967 -0.176638
vn -0.637078 0.747724 0.187189
vn 0.701958 0.689967 -0.176638
vn 0.361022 0.742363 -0.564412
vn -0.290101 0.766650 0.572791
vn -0.697507 -0.691697 0.187189
vn -0.637078 0.747724 0.187189
vn -0.290101 0.766650 0.572791
vn -0.353338 -0.739640 0.572787
vn 0.641658 -0.746373 0.176639
vn 0.641658 -0.746373 -0.176639
vn 0.701958 0.689967 -0.176638
vn 0.701958 0.689967 0.176639
vn -0.637079 0.747724 -0.187188
vn 0.701958 0.689967 0.176639
vn 0.701958 0.689967 -0.176638
vn -0.637078 0.747724 0.187189
vn -0.697507 -0.691697 -0.187188
vn -0.637079 0.747724 -0.187188
vn -0.637078 0.747724 0.187189
vn -0.697507 -0.691697 0.187189
vn -0.697507 -0.691697 -0.187188
vn -0.697507 -0.691697 0.187189
vn 0.641658 -0.746373 -0.176639
vn 0.641658 -0.746373 0.176639
vn -0.353339 -0.739641 -0.572785
vn -0.697507 -0.691697 -0.187188
vn 0.641658 -0.746373 0.176639
vn 0.297529 -0.770006 0.564417
vn 0.373642 -0.832903 -0.408244
vn -0.353339 -0.739641 -0.572785
vn 0.297529 -0.770006 0.564417
vn -0.442135 -0.798653 0.408252
vn -0.697507 -0.691697 0.187189
vn -0.353338 -0.739640 0.572787
vn 0.297530 -0.770007 -0.564416
vn 0.641658 -0.746373 -0.176639
vn -0.353338 -0.739640 0.572787
vn 0.373642 -0.832903 0.408246
vn -0.442136 -0.798653 -0.408251
vn 0.297530 -0.770007 -0.564416
vn 0.373642 -0.832903 0.408246
vn 0.373642 -0.832903 -0.408244
vn -0.442135 -0.798653 0.408252
vn -0.442136 -0.798653 -0.408251
s off
g polySurface63
usemtl lambert2SG
f 1/1/1 2/2/2 4/3/3 3/4/4
f 5/5/5 6/6/6 8/7/7 7/8/8
f 7/9/9 8/10/10 2/11/11 1/12/12
f 2/13/13 8/14/14 6/6/15 4/3/16
f 7/9/17 1/12/18 3/4/19 5/5/20
f 3/4/21 4/3/22 9/15/23
f 4/3/24 6/6/25 10/16/26 9/15/27
f 6/6/28 5/5/29 10/16/30
f 5/5/31 3/4/32 9/15/33 10/16/34
f 11/17/35 12/18/36 14/19/37 13/20/38
f 13/20/39 14/19/40 16/21/41 15/22/42
f 15/22/43 16/21/44 18/23/45 17/24/46
f 17/25/47 18/26/48 12/18/49 11/17/50
f 19/27/51 20/28/52 22/29/53 21/30/54
f 23/31/55 24/32/56 26/33/57 25/34/58
f 20/28/59 39/35/60 40/36/61 22/29/62
f 25/34/63 19/37/64 21/38/65 23/31/66
f 21/38/67 22/39/68 28/40/69 27/41/70
f 22/39/71 40/42/72 41/43/73 28/40/74
f 24/44/75 23/31/76 30/45/77 29/46/78
f 23/31/79 21/38/80 27/41/81 30/45/82
f 27/47/83 28/48/84 32/49/85 31/50/86
f 28/48/87 41/51/88 42/52/89 32/49/90
f 29/53/91 30/54/92 34/55/93 33/56/94
f 30/57/95 27/47/96 31/50/97 34/58/98
f 35/59/99 26/33/100 24/32/101 36/60/102
f 37/61/103 36/62/104 24/44/105 29/46/106
f 38/63/107 37/64/108 29/53/109 33/56/110
f 39/35/111 35/59/112 36/60/113 40/36/114
f 41/43/115 40/42/116 36/62/117 37/61/118
f 42/52/119 41/51/120 37/64/121 38/63/122
f 42/65/123 38/66/124 35/67/125 39/68/126
f 32/69/127 42/65/128 39/68/129 20/70/130
f 31/71/131 32/69/132 20/70/133 19/37/134
f 38/66/135 33/72/136 26/73/137 35/67/138
f 33/72/139 34/74/140 25/34/141 26/73/142
f 34/74/143 31/71/144 19/37/145 25/34/146
